<?xml version="1.0" encoding="UTF-8" standalone="no"?>
<svg
   xmlns:dc="http://purl.org/dc/elements/1.1/"
   xmlns:cc="http://creativecommons.org/ns#"
   xmlns:rdf="http://www.w3.org/1999/02/22-rdf-syntax-ns#"
   xmlns:svg="http://www.w3.org/2000/svg"
   xmlns="http://www.w3.org/2000/svg"
   xmlns:sodipodi="http://sodipodi.sourceforge.net/DTD/sodipodi-0.dtd"
   xmlns:inkscape="http://www.inkscape.org/namespaces/inkscape"
   version="1.1"
   id="ship"
   x="0px"
   y="0px"
   xml:space="preserve"
   inkscape:version="0.48.2 r9819"
   width="100%"
   height="100%"
   sodipodi:docname="ship.svg"><metadata
   id="metadata3134"><rdf:RDF><cc:Work
       rdf:about=""><dc:format>image/svg+xml</dc:format><dc:type
         rdf:resource="http://purl.org/dc/dcmitype/StillImage" /></cc:Work></rdf:RDF></metadata><defs
   id="defs3132" /><sodipodi:namedview
   pagecolor="#ffffff"
   bordercolor="#666666"
   borderopacity="1"
   objecttolerance="10"
   gridtolerance="10"
   guidetolerance="10"
   inkscape:pageopacity="0"
   inkscape:pageshadow="2"
   inkscape:window-width="887"
   inkscape:window-height="708"
   id="namedview3130"
   showgrid="false"
   inkscape:zoom="7.0847604"
   inkscape:cx="41.215997"
   inkscape:cy="1003.5875"
   inkscape:window-x="0"
   inkscape:window-y="0"
   inkscape:window-maximized="0"
   inkscape:current-layer="g3124" />
<g
   id="g3124"
   transform="matrix(0.70710678,-0.70710678,0.70710678,0.70710678,-12.842404,32.822117)">
	<path
   d="m 48.921908,16.495906 c -7.96e-4,-0.235169 -0.171507,-0.41824 -0.407014,-0.436469 -4.332912,-0.307404 -8.687353,0.230951 -12.638207,2.106216 -2.96082,1.404524 -5.483343,3.581816 -7.49713,6.148099 -1.9816,0.03989 -3.868475,0.662396 -5.665481,1.462168 -1.123138,0.500107 -2.093541,0.924501 -2.808213,1.934173 -1.574659,2.226401 -2.248594,5.27874 -2.635702,7.939853 -0.03279,0.221986 0.242119,0.344659 0.414295,0.256614 1.721044,-0.85946 3.787414,-1.120502 5.713068,-1.134307 -0.100308,0.436764 -0.193576,0.872775 -0.269861,1.309379 -0.01,0.05669 -0.01893,0.111406 -0.02786,0.166126 -0.03994,0.08365 -0.05019,0.176356 -0.01635,0.267592 0.02204,0.113838 0.09633,0.19248 0.190921,0.234805 0.04751,0.04369 0.09405,0.08634 0.141584,0.12902 -0.160464,0.411652 -0.31893,0.823372 -0.479395,1.235022 -0.03195,0.08394 -0.0076,0.216869 0.06243,0.275347 1.213898,1.026989 2.427796,2.053979 3.642694,3.081005 0.09717,0.08245 0.217883,0.12168 0.338257,0.05584 0.304994,-0.166457 0.608954,-0.33195 0.912951,-0.498441 0.321412,0.194335 0.650174,0.292868 0.973365,0.207097 0.290859,-0.07691 0.578897,-0.158893 0.867004,-0.242891 0.0754,1.823743 -0.08269,3.743396 -0.778389,5.413133 -0.191141,0.66588 -0.283323,0.68243 -0.08877,0.641194 2.565924,-0.554788 5.84464,-1.711969 7.953883,-3.315334 0.975468,-0.741409 1.282471,-1.481146 1.737794,-2.599937 0.702823,-1.730526 1.226259,-3.596395 1.262818,-5.474263 0.352577,-0.296876 0.697295,-0.598029 1.03451,-0.913452 4.437222,-4.169684 7.088581,-10.007708 7.887074,-15.99649 0.105865,-0.795787 0.181026,-1.459573 0.179669,-2.251101 z M 38.842671,27.73099 c -1.800904,-0.06289 -3.208062,-1.572918 -3.145208,-3.372821 0.06289,-1.800901 1.571954,-3.209093 3.372856,-3.146205 1.800903,0.06289 3.20806,1.572919 3.145172,3.373821 -0.06286,1.799902 -1.571919,3.208095 -3.37282,3.145205 z"
   id="path3126"
   inkscape:connector-curvature="0"
   style="fill:#00adee;fill-opacity:1"
   sodipodi:nodetypes="ccccccccccccccccccccccccccccccsssss" />
	
</g>
</svg>